<svg id="XDClogo" xmlns="http://www.w3.org/2000/svg" xmlns:xlink="http://www.w3.org/1999/xlink" width="174.058" height="59" viewBox="0 0 174.058 59">
  <defs>
    <clipPath id="clip-path">
      <rect id="Rectangle_6" data-name="Rectangle 6" width="174.058" height="59" fill="none"/>
    </clipPath>
  </defs>
  <g id="Group_4" data-name="Group 4" clip-path="url(#clip-path)">
    <path id="Path_1" data-name="Path 1" d="M486.785,0h11.36c4.63,0,10.077,1.366,13.6,4.084a17.433,17.433,0,0,1,7.032,13.67v9.393c0,10.965-11.226,18.331-20.632,18.331h-11.36l-7.124-9.628h18.484c4.026,0,9.849-3.87,9.849-9.474V18.524c0-5.92-6.041-8.9-9.849-8.9H479.661Z" transform="translate(-387.301)" fill="#2b3450"/>
    <path id="Path_2" data-name="Path 2" d="M697.017,26.954V19.1c0-5.6,5.823-9.474,9.849-9.474H729.2L722.077,0H706.866c-7.274,0-15.635,4.406-19.052,11.475a17.179,17.179,0,0,1,1.075,5.952V27.435a16.618,16.618,0,0,1-1.36,6.6,18.389,18.389,0,0,0,5.738,7.358c3.523,2.717,8.97,4.084,13.6,4.084h15.211L729.2,35.85H706.866c-3.808,0-9.849-2.976-9.849-8.9" transform="translate(-555.143)" fill="#2b3450"/>
    <path id="Path_3" data-name="Path 3" d="M261.405,47.706l-12.33-.021,36.315-44.6,12.58-.04Z" transform="translate(-201.115 -2.455)" fill="#2b3450"/>
    <path id="Path_4" data-name="Path 4" d="M286.641,47.706l12.33-.021-36.315-44.6-12.58-.04Z" transform="translate(-201.923 -2.455)" fill="#2b3450"/>
    <path id="Path_5" data-name="Path 5" d="M434.577,58.613l-9.271,11.142,9.271,11.2Z" transform="translate(-343.412 -47.327)" fill="#4669a8"/>
    <path id="Path_6" data-name="Path 6" d="M255.558,262.018h-1.921v-8.832H250.56v-1.574h8.075v1.574h-3.077Z" transform="translate(-202.314 -203.164)" fill="#4669a8"/>
    <path id="Path_7" data-name="Path 7" d="M304.037,251.612a5.233,5.233,0,0,1,3.129.758,3.089,3.089,0,0,1,.72,3.6,2.794,2.794,0,0,1-.758.9,4.277,4.277,0,0,1-1.005.576l3.077,4.576h-2.161l-2.566-4.11h-1.561v4.11H300.99V251.612Zm-.12,1.559h-1.005v3.206h1.066a2.813,2.813,0,0,0,1.718-.415,1.465,1.465,0,0,0,.533-1.231,1.314,1.314,0,0,0-.563-1.2,3.343,3.343,0,0,0-1.749-.357" transform="translate(-243.034 -203.163)" fill="#4669a8"/>
    <path id="Path_8" data-name="Path 8" d="M352.107,261.835l-.975-2.754h-4.037l-.96,2.754h-2.041l3.932-10.45h2.191l3.932,10.45Zm-2.4-7.039q-.06-.2-.18-.554t-.233-.721q-.113-.372-.173-.619-.075.292-.188.67t-.218.714q-.105.335-.15.51l-.946,2.682h3.017Z" transform="translate(-277.837 -202.98)" fill="#4669a8"/>
    <path id="Path_9" data-name="Path 9" d="M412.407,256.713a5.009,5.009,0,0,1-1.516,3.971,6.2,6.2,0,0,1-4.232,1.334h-3.017V251.612h3.332a6.621,6.621,0,0,1,2.874.583,4.283,4.283,0,0,1,1.891,1.713,5.432,5.432,0,0,1,.668,2.805m-2.011.058a3.731,3.731,0,0,0-.878-2.74,3.453,3.453,0,0,0-2.544-.875h-1.411v7.3h1.156q3.677,0,3.677-3.687" transform="translate(-325.92 -203.163)" fill="#4669a8"/>
    <path id="Path_10" data-name="Path 10" d="M467.1,262.018h-6.093V251.612H467.1v1.559h-4.172v2.652h3.9v1.56h-3.9v3.06H467.1Z" transform="translate(-372.24 -203.164)" fill="#4669a8"/>
    <path id="Path_11" data-name="Path 11" d="M533.876,262.018H531.49l-5.073-8.162h-.06q.045.656.083,1.407t.053,1.508v5.247h-1.726V251.612h2.371l5.058,8.1h.045q-.03-.583-.06-1.341t-.045-1.472v-5.29h1.741Z" transform="translate(-423.721 -203.163)" fill="#4669a8"/>
    <path id="Path_12" data-name="Path 12" d="M592.668,262.018h-6.094V251.612h6.094v1.559H588.5v2.652h3.9v1.56h-3.9v3.06h4.172Z" transform="translate(-473.629 -203.164)" fill="#4669a8"/>
    <path id="Path_13" data-name="Path 13" d="M629.063,262.018h-1.921v-8.832h-3.077v-1.574h8.074v1.574h-3.077Z" transform="translate(-503.9 -203.164)" fill="#4669a8"/>
    <path id="Path_14" data-name="Path 14" d="M681.789,251.612l-2.776,10.406H676.9l-1.7-5.975q-.09-.291-.2-.751t-.2-.9q-.09-.437-.12-.641-.03.2-.113.634t-.2.9q-.112.466-.2.787l-1.651,5.946H670.4l-2.762-10.406h1.921l1.471,5.932q.105.379.2.86t.188.954q.09.474.135.823.045-.364.135-.845t.2-.94q.1-.459.195-.779l1.681-6h1.861l1.711,6.019q.1.321.21.794t.2.94q.09.466.135.816.045-.364.127-.831t.188-.947q.1-.481.21-.86l1.471-5.932Z" transform="translate(-539.081 -203.163)" fill="#4669a8"/>
    <path id="Path_15" data-name="Path 15" d="M755.432,256.129a6.749,6.749,0,0,1-.548,2.82,4.114,4.114,0,0,1-1.674,1.873,6.287,6.287,0,0,1-5.65,0,4.119,4.119,0,0,1-1.666-1.88,6.8,6.8,0,0,1-.548-2.827,6.714,6.714,0,0,1,.548-2.806,4.085,4.085,0,0,1,1.666-1.865,5.507,5.507,0,0,1,2.844-.663,5.443,5.443,0,0,1,2.814.663,4.088,4.088,0,0,1,1.666,1.865,6.751,6.751,0,0,1,.548,2.82m-8.059,0a4.68,4.68,0,0,0,.72,2.769,3.133,3.133,0,0,0,4.6,0,5.76,5.76,0,0,0,.008-5.538,2.608,2.608,0,0,0-2.3-1.006,2.652,2.652,0,0,0-2.3,1.006,4.645,4.645,0,0,0-.728,2.769" transform="translate(-601.828 -202.492)" fill="#4669a8"/>
    <path id="Path_16" data-name="Path 16" d="M812.619,251.612a5.234,5.234,0,0,1,3.129.758,3.089,3.089,0,0,1,.72,3.6,2.793,2.793,0,0,1-.758.9,4.281,4.281,0,0,1-1.006.576l3.077,4.576H815.62l-2.566-4.11h-1.561v4.11h-1.921V251.612Zm-.12,1.559h-1.006v3.206h1.066a2.814,2.814,0,0,0,1.718-.415,1.466,1.466,0,0,0,.533-1.231,1.314,1.314,0,0,0-.563-1.2,3.342,3.342,0,0,0-1.748-.357" transform="translate(-653.687 -203.163)" fill="#4669a8"/>
    <path id="Path_17" data-name="Path 17" d="M868.238,262.018h-2.206l-3.182-4.605-1.006.773v3.833h-1.921V251.612h1.921v4.9q.3-.364.615-.743l.631-.758,2.9-3.4h2.176l-3.932,4.576Z" transform="translate(-694.343 -203.163)" fill="#4669a8"/>
    <path id="Path_18" data-name="Path 18" d="M45.32,20.5C40.114-9.673.72-3.835.017,20.5c2.274,1.18,3.7,1.9,3.7,1.9S2.513,23.114,0,24.723C4.54,54.3,43.254,50,45.318,24.69c-2.46-1.508-3.8-2.306-3.8-2.306S42.66,21.83,45.32,20.5M25.939,31.03l-3.7-6.352L18.489,31.03l-2.837-.194L21,21.827,16.18,14.049l2.9-.259,3.431,5.77,3.431-5.51,2.7.065-4.486,7.648,4.949,9.2Z" transform="translate(0 0)" fill="#b7b5b1"/>
    <path id="Path_19" data-name="Path 19" d="M51.179,26.955C44.12.153,11.767,7.4,9.551,26.955c4.489,2.526,5.508,3.119,5.508,3.119s-1.735,1.11-5.524,3.515c4.815,25.766,39.724,20.819,41.637-.031-3.523-2.208-5.6-3.5-5.6-3.5s4.752-2.653,5.609-3.107M33.635,38.69l-3.694-6.344L26.186,38.69,23.349,38.5l5.344-9.008L23.87,21.711l2.9-.259,3.43,5.768,3.431-5.508,2.7.065-4.486,7.647,4.947,9.2Z" transform="translate(-7.699 -7.644)" fill="#244b81"/>
  </g>
</svg>
